<?xml version="1.0" standalone="no"?>
<!DOCTYPE svg PUBLIC "-//W3C//DTD SVG 1.1//EN" "http://www.w3.org/Graphics/SVG/1.1/DTD/svg11.dtd" >
<svg xmlns="http://www.w3.org/2000/svg">
<metadata>Generated by IcoMoon</metadata>
<defs>
<font id="icomoon" horiz-adv-x="1024">
<font-face units-per-em="1024" ascent="960" descent="-64" />
<missing-glyph horiz-adv-x="1024" />
<glyph unicode="&#x20;" d="" horiz-adv-x="512" />
<glyph unicode="&#xe600;" d="M407.649 20.463l20.078 0.803 19.827 2.034 19.39 2.9 19.257 4.079 18.6 4.688 18.397 5.752 17.974 6.55 17.601 7.407 17.17 8.138 16.553 9.277 16.177 9.619 15.498 10.63 14.949 11.3 14.498 11.863 13.913 12.725 13.324 13.276 12.49 13.701 11.848 14.578 11.238 14.949 10.62 15.559 9.574 16.178 9.213 16.617 8.206 16.98 7.339 17.594 6.549 17.857 5.754 18.211 4.688 18.843 3.893 18.835 3.024 19.444 2.095 19.522 0.993 19.823v20.315l-0.19 6.917-0.421 6.983-0.381 6.788-0.612 6.917-0.615 6.79-0.868 6.978-0.985 6.734-1.047 6.757-1.241 6.565-1.166 6.761-1.484 6.551-1.414 6.562-1.61 6.545-1.681 6.343-1.851 6.56-2.023 6.351-2.051 6.36-2.039 6.347-2.226 6.143-2.454 6.147-2.479 6.148-2.414 6.134-2.722 6.148-2.648 5.94-2.844 5.946-2.829 5.73-3.095 5.947-3.086 5.724-3.275 5.743-3.275 5.525-3.446 5.53-3.457 5.53h-14.159l-6.915-0.203-6.973-0.402-13.887-1.037-13.474-1.214-13.511-1.641-13.1-2.056-12.475-2.052-12.222-2.251-11.675-2.457-10.863-2.455-19.827-4.709-8.776-2.254-7.777-2.057-6.737-1.832-5.924-1.638 4.876-3.902 4.503-4.295 4.697-4.095 4.329-4.507 4.251-4.508 4.339-4.505 4.071-4.71 3.893-4.922 3.875-4.913 3.712-5.126 3.643-5.119 3.461-5.111 3.275-5.331 6.174-11.066 2.837-5.53 2.838-5.728 2.469-5.744 2.477-5.928 2.469-5.947 2.047-5.938 2.032-6.14 1.602-6.154 1.845-6.342 1.438-6.143 1.227-6.55 1.243-6.361 1.040-6.542 0.805-6.544 0.617-6.555 0.375-6.602 0.25-6.735v-9.442l-0.25-9.199-0.805-9.019-0.992-9.018-1.244-9.013-1.656-8.776-2.047-8.641-2.212-8.582-2.663-8.403-2.9-8.401-3.261-8.215-3.462-7.963-7.79-15.56-4.502-7.596-4.455-7.167-4.931-7.345-5.126-6.981-5.306-6.735-5.69-6.606-5.737-6.291-6.189-6.183-6.112-5.931-6.534-5.735-6.744-5.565-6.971-5.066-7.165-4.931-7.103-4.702-7.589-4.503-7.535-4.322-7.776-3.89-7.971-3.462-3.275 7.353-2.9 6.55-2.415 5.737-2.282 5.563-2.469 5.494-2.415 5.746-2.891 6.361-3.041 7.345-16.176-9.206-17.171-9.447-8.767-4.689-9.005-4.697-18.834-9.198-9.582-4.502-9.816-4.519-9.996-4.321-10.262-4.501-10.433-4.080-10.426-4.313-10.808-3.899-10.879-4.073-10.996-3.712-11.239-3.699-11.488-3.452-11.669-3.532-11.613-3.276-23.703-5.681-12.113-2.719-12.223-2.409-12.477-2.274-12.474-2.047-12.72-1.656-25.506-2.853-13.090-0.796-13.093-0.868 6.908-6.541 6.99-6.558 7.34-6.338 7.354-6.134 7.599-5.916 7.527-5.752 7.785-5.744 7.962-5.306 8.219-5.37 8.147-4.885 8.407-4.933 8.389-4.516 8.598-4.501 8.761-4.088 8.767-4.064 9.027-3.712 9.191-3.706 9.010-3.266 9.394-3.095 9.385-2.838 9.449-2.656 9.574-2.471 9.636-2.219 9.816-1.853 9.824-1.674 9.816-1.412 10.003-1.241 9.996-1.058 10.254-0.553 10.191-0.423 10.254-0.187 10.183 0.187zM389.064 801.882l-20.25-1.019-19.64-1.841-19.39-3.071-19.21-3.91-18.834-4.708-18.405-5.717-17.959-6.564-17.429-7.366-17.17-8.401-16.546-9.019-16.177-9.828-15.498-10.461-15.13-11.25-14.33-11.883-13.9-12.697-13.278-13.324-12.473-13.922-12.102-14.339-11.242-15.154-10.43-15.575-9.768-15.979-9.016-16.583-8.205-17.213-7.344-17.398-6.556-17.835-5.673-18.428-4.948-18.639-3.892-19.050-2.833-19.257-2.039-19.64-1.049-19.881v-20.066l0.247-6.979 0.363-6.979 0.438-6.979 0.613-6.728 0.624-6.99 0.802-6.717 0.98-6.8 1.051-6.731 1.244-6.55 1.239-6.79 1.414-6.541 1.414-6.551 1.677-6.549 1.606-6.542 1.853-6.363 2.027-6.36 1.848-6.36 2.232-6.363 2.282-6.121 2.232-6.353 2.466-6.112 2.657-5.986 2.653-6.127 2.654-5.924 2.848-5.924 2.903-5.994 3.024-5.675 3.089-5.752 3.27-5.744 3.263-5.554 3.462-5.737 3.457-5.322 6.99-0.181 14.072 0.368 6.984 0.436 13.712 0.807 13.7 1.484 13.466 1.602 12.915 1.861 12.649 2.204 12.297 2.296 11.422 2.462 11.047 2.237 10.204 2.46 9.625 2.469 8.776 2.22 7.776 2.040 6.728 1.853 5.924 1.491-4.869 4.065-4.696 4.079-4.502 4.33-8.776 8.76-8.214 9.45-4.079 4.947-3.693 4.878-3.903 4.938-3.451 5.128-3.46 5.315-3.269 5.305-3.287 5.558-2.829 5.494-3.095 5.556-2.658 5.744-2.652 5.744-2.467 5.931-2.232 5.933-2.023 5.916-2.044 6.18-1.861 6.112-1.66 6.183-1.426 6.363-1.414 6.3-1.051 6.602-0.993 6.3-0.804 6.547-0.609 6.792-0.434 6.541-0.185 6.8v9.203l0.185 9.198 0.621 9.206 0.98 9.009 1.486 8.836 1.611 8.771 2.035 8.827 2.283 8.613 2.652 8.405 2.85 8.378 3.262 8.002 3.461 8.191 3.706 7.789 4.079 7.773 4.326 7.384 4.697 7.366 4.876 7.182 5.124 6.96 5.307 6.757 5.501 6.753 5.986 6.356 6.112 6.148 6.112 5.923 6.549 5.754 6.737 5.322 6.978 5.326 6.964 4.913 7.354 4.708 7.362 4.505 7.777 4.104 7.776 3.896 7.964 3.675 3.283-7.368 2.648-6.558 2.666-5.929 2.211-5.543 2.469-5.331 2.479-5.922 2.648-6.363 3.276-7.162 16.114 9.213 16.992 9.419 9.010 4.711 8.956 4.507 9.199 4.708 9.456 4.508 9.816 4.71 9.762 4.508 10.059 4.307 10.19 4.305 10.44 4.29 10.426 4.112 10.808 4.088 10.872 3.892 11.058 3.888 11.239 3.694 22.921 6.959 11.599 3.076 11.863 3.075 12.107 2.868 12.035 2.656 12.285 2.457 12.474 2.251 12.482 1.851 12.659 1.844 12.66 1.434 12.903 1.236 13.099 1.016 13.028 0.621-6.916 6.756-7.16 6.554-7.165 6.339-7.346 6.143-7.605 5.944-7.533 5.752-7.964 5.72-7.777 5.326-8.157 5.136-8.214 5.12-8.394 4.907-17.162 9.014-8.589 4.096-8.957 4.092-8.84 3.689-9.19 3.493-9.206 3.469-9.198 3.072-9.387 2.877-9.387 2.665-9.636 2.457-9.635 2.040-9.817 2.056-9.762 1.637-9.816 1.431-10.067 1.239-9.996 1.016-10.206 0.617-10.239 0.402-10.197 0.219-10.254-0.219z" horiz-adv-x="791" />
<glyph unicode="&#xe601;" d="M597.325 260.279h-85.325c-9.421 0-17.075-7.757-17.075-17.28 0-9.549 7.654-17.254 17.075-17.254h102.4v1.741c48.41 8.243 85.325 50.534 85.325 101.786 0 57.165-45.824 103.475-102.4 103.475h-68.275v69.069h136.55v34.483h-170.675v-138.035h102.4c37.734 0 68.275-30.899 68.275-68.992 0-38.118-30.541-68.992-68.275-68.992zM409.6 225.745h34.125v310.554h-34.125c-8.141-55.398-38.221-50.458-85.325-51.763v-34.509h85.325v-224.282zM989.85 812.318h-221.85v17.254c0 9.523-7.654 17.254-17.050 17.254-9.446 0-17.101-7.731-17.101-17.254v-17.254h-85.299v17.254c0 9.523-7.654 17.254-17.101 17.254-9.395 0-17.050-7.731-17.050-17.254v-17.254h-85.35v17.254c0 9.523-7.629 17.254-17.050 17.254s-17.075-7.731-17.075-17.254v-17.254h-85.325v17.254c0 9.523-7.654 17.254-17.075 17.254s-17.075-7.731-17.075-17.254v-17.254h-85.325v17.254c0 9.523-7.654 17.254-17.075 17.254s-17.050-7.731-17.050-17.254v-17.254h-221.875c-18.842 0-34.125-15.437-34.125-34.483v-690.099c0-19.046 15.283-34.509 34.125-34.509h955.725c18.867 0 34.15 15.462 34.15 34.509v690.099c0 19.046-15.283 34.483-34.15 34.483zM989.85 104.99c0-9.523-7.629-17.28-17.050-17.28h-921.6c-9.421 0-17.075 7.757-17.075 17.28v569.344h955.725v-569.344zM989.85 708.843h-955.725v51.712c0 9.549 7.629 17.28 17.075 17.28h204.8v-17.28c0-9.523 7.629-17.203 17.075-17.203s17.075 7.68 17.075 17.203v17.28h85.325v-17.28c0-9.523 7.629-17.203 17.075-17.203s17.050 7.68 17.050 17.203v17.28h85.325v-17.28c0-9.523 7.629-17.203 17.075-17.203s17.050 7.68 17.050 17.203v17.28h85.35v-17.28c0-9.523 7.654-17.203 17.050-17.203 9.446 0 17.101 7.68 17.101 17.203v17.28h85.299v-17.28c0-9.523 7.654-17.203 17.101-17.203 9.395 0 17.050 7.68 17.050 17.203v17.28h204.8c9.421 0 17.050-7.731 17.050-17.28v-51.712z" />
<glyph unicode="&#xe602;" d="M533.811 463.595c18.534 38.093 29.389 82.534 29.389 130.15 0 139.827-91.699 253.107-204.8 253.107s-204.8-113.28-204.8-253.107c0-139.802 91.699-253.107 204.8-253.107 64.102 0 121.293 36.48 158.848 93.466 98.611-54.963 165.402-159.155 165.402-279.014 0-5.709-0.461-11.315-0.794-16.922h-646.912c-0.358 5.606-0.794 11.213-0.794 16.922 0 102.426 48.819 193.485 124.493 252.186-6.17 9.344-11.776 19.277-17.050 29.44-85.914-64.717-141.594-166.579-141.594-281.626 0-17.28 1.664-34.099 4.070-50.662h708.659c2.432 16.563 4.070 33.408 4.070 50.662 0 132.608-73.907 247.782-182.989 308.506zM358.4 374.455c-94.259 0-170.675 98.202-170.675 219.29s76.416 219.366 170.675 219.366c94.259 0 170.65-98.278 170.65-219.366s-76.39-219.29-170.65-219.29zM864.358 416.209c14.643 32.384 23.194 69.888 23.194 110.054 0 121.139-76.442 219.341-170.752 219.341-43.827 0-83.661-21.402-113.894-56.243 3.686-14.694 6.195-30.054 8.141-45.594 25.088 41.472 63.13 67.994 105.754 67.994 75.494 0 136.678-83.098 136.678-185.523 0-98.79-56.934-179.277-128.666-184.96 5.35-10.496 10.291-21.274 14.694-32.307 43.29 7.424 81.51 35.507 108.211 76.518 83.482-43.827 142.106-144.589 142.157-247.117l-221.875-0.205v-33.715h252.493c2.074 14.31 3.507 28.826 3.507 43.75 0 115.61-64.589 215.987-159.642 268.006z" />
<glyph unicode="&#xe603;" d="M654.985 397.437c10.69 22.578 16.983 48.977 16.983 77.3 0 82.769-52.624 149.829-117.61 149.829-64.962 0-117.585-67.060-117.585-149.829s52.649-149.879 117.585-149.879c32.593 0 62.039 16.884 83.319 44.132 41.235-23.402 71.38-63.213 81.221-110.717h-329.353c7.368 35.665 26.224 67.159 52.624 90.587-6.594 8.941-12.488 18.682-17.583 29.122-44.132-36.664-72.229-91.536-72.229-153.001h403.98c0 73.953-40.96 137.915-101.351 172.457zM554.334 357.975c-45.655 0-84.143 50.226-84.143 113.914s38.487 119.583 84.143 119.583 84.168-50.226 84.168-113.914-38.512-119.583-84.168-119.583zM840.479 924.297h-673.268c-18.582 0-33.667-14.935-33.667-33.292v-216.489h-16.809c-9.291 0-16.834-7.443-16.834-16.634 0-9.216 7.543-16.634 16.834-16.634h16.834v-83.269h-16.834c-9.291 0-16.834-7.468-16.834-16.659s7.543-16.659 16.834-16.659h16.834v-83.244h-16.834c-9.291 0-16.834-7.468-16.834-16.684 0-9.141 7.543-16.634 16.834-16.634h16.834v-83.244h-16.834c-9.291 0-16.834-7.443-16.834-16.634 0-9.216 7.543-16.684 16.834-16.684h16.834v-83.219h-16.834c-9.291 0-16.834-7.468-16.834-16.634 0-9.216 7.543-16.659 16.834-16.659h16.834v-216.489c0-18.357 15.085-33.292 33.667-33.292h673.268c18.582 0 33.667 14.935 33.667 33.292v932.464c-0.025 18.357-15.11 33.292-33.692 33.292zM234.546-41.46h-50.476c-9.316 0-16.834 7.468-16.834 16.684v199.805h16.834c9.291 0 16.834 7.443 16.834 16.659 0 9.166-7.543 16.634-16.834 16.634h-16.859v83.219h16.859c9.291 0 16.834 7.468 16.834 16.684 0 9.191-7.543 16.634-16.834 16.634h-16.859v83.244h16.859c9.291 0 16.834 7.493 16.834 16.634 0 9.216-7.543 16.684-16.834 16.684h-16.859v83.244h16.859c9.291 0 16.834 7.468 16.834 16.659s-7.543 16.659-16.834 16.659h-16.859v83.269h16.859c9.291 0 16.834 7.418 16.834 16.634 0 9.191-7.543 16.634-16.834 16.634h-16.859v199.805c0 9.216 7.543 16.684 16.834 16.684h50.476v-932.464zM840.479-24.776c0-9.216-7.543-16.684-16.834-16.684h-555.433v932.464h555.433c9.291 0 16.834-7.468 16.834-16.684v-899.097z" horiz-adv-x="999" />
<glyph unicode="&#xe604;" d="M250.142 674.046c6.287-6.358 16.503-6.358 22.814 0 6.311 6.335 6.311 16.646 0 22.98l-79.848 80.563c-6.311 6.358-16.503 6.358-22.814 0-6.311-6.335-6.311-16.646 0-22.98l79.848-80.563zM152.862 437.168h-112.926c-8.906 0-16.122-7.311-16.122-16.265 0-9.002 7.216-16.313 16.122-16.313h112.926c8.906 0 16.122 7.311 16.122 16.313 0.024 8.954-7.216 16.265-16.122 16.265zM794.934 671.474l79.11 79.824c6.239 6.311 6.239 16.479 0 22.814-6.239 6.287-16.384 6.287-22.599 0l-79.11-79.848c-6.263-6.263-6.263-16.479 0-22.79 6.215-6.287 16.336-6.287 22.599 0zM523.907 778.898c8.906 0 16.146 7.287 16.146 16.289v113.878c0 8.978-7.239 16.265-16.146 16.265s-16.122-7.287-16.122-16.265v-113.902c0-9.002 7.216-16.265 16.122-16.265zM252.404 169.833l-79.11-79.824c-6.239-6.335-6.239-16.527 0-22.814 6.239-6.335 16.36-6.335 22.599 0l79.134 79.824c6.239 6.287 6.239 16.455 0 22.814-6.263 6.263-16.384 6.263-22.623 0zM1007.854 437.168h-112.926c-8.883 0-16.122-7.311-16.122-16.265 0-9.002 7.239-16.313 16.122-16.313h112.926c8.93 0 16.146 7.311 16.146 16.313 0 8.954-7.216 16.265-16.146 16.265zM523.907 713.815c-160.363 0-290.364-131.143-290.364-292.912 0-108.377 58.487-202.776 145.194-253.428v-185.987c0-17.956 14.431-32.554 32.244-32.554h225.852c17.813 0 32.244 14.598 32.244 32.554v185.987c86.73 50.652 145.194 145.051 145.194 253.428 0 161.768-130 292.912-290.364 292.912zM636.833 150.972v-153.171c0-9.002-7.239-16.313-16.146-16.313h-193.584c-8.906 0-16.146 7.311-16.146 16.313v162.721h225.852v-9.549zM648.097 193.075h-248.356c-79.729 44.27-133.953 129.5-133.953 227.828 0 143.765 115.569 260.406 258.119 260.406s258.119-116.617 258.119-260.406c0-98.328-54.201-183.558-133.93-227.828zM797.672 167.713c-6.311 6.382-16.503 6.382-22.814 0-6.311-6.335-6.311-16.622 0-22.98l79.848-80.586c6.335-6.335 16.503-6.335 22.838 0 6.287 6.406 6.287 16.67 0 23.028l-79.872 80.539z" />
<glyph unicode="&#xe605;" d="M414.848 368.439h-168.73c-9.318 0-16.87-7.629-16.87-17.075s7.552-17.075 16.87-17.075h168.73c9.318 0 16.87 7.629 16.87 17.075s-7.578 17.075-16.87 17.075zM583.552 470.839h-337.434c-9.318 0-16.87-7.654-16.87-17.075s7.552-17.024 16.87-17.024h337.434c9.344 0 16.896 7.603 16.896 17.024s-7.552 17.075-16.896 17.075zM836.659 948.74h-506.189c-18.637 0-33.741-15.258-33.741-34.15v-51.2h-50.611c-18.637 0-33.741-15.258-33.741-34.15v-51.174h-50.637c-18.637 0-33.741-15.283-33.741-34.176v-785.101c0-18.816 15.104-34.125 33.741-34.125h506.163c18.637 0 33.741 15.309 33.741 34.125v51.174h50.637c18.637 0 33.741 15.36 33.741 34.15v51.251h50.611c18.662 0 33.741 15.283 33.741 34.099v785.126c0.026 18.918-15.078 34.15-33.715 34.15zM667.93-24.162c0-9.37-7.552-17.050-16.87-17.050h-472.448c-9.318 0-16.87 7.68-16.87 17.050v751.027c0 9.421 7.552 17.024 16.87 17.024h472.448c9.318 0 16.87-7.603 16.87-17.024v-751.027zM752.307 61.214c0-9.395-7.552-17.101-16.896-17.101h-33.715v699.776c0 18.867-15.13 34.176-33.741 34.176h-421.837v34.15c0 9.421 7.552 17.024 16.87 17.024h472.422c9.344 0 16.896-7.603 16.896-17.024v-751.002zM836.659 146.539c0-9.421-7.552-17.075-16.87-17.075h-33.715v699.776c0 18.893-15.13 34.15-33.741 34.15h-421.862v34.15c0 9.421 7.552 17.050 16.87 17.050h472.422c9.318 0 16.87-7.629 16.87-17.050v-751.002zM583.552 675.639h-337.434c-9.318 0-16.87-7.629-16.87-17.024 0-9.472 7.552-17.101 16.87-17.101h337.434c9.344 0 16.896 7.629 16.896 17.101 0 9.395-7.552 17.024-16.896 17.024zM583.552 573.239h-337.434c-9.318 0-16.87-7.603-16.87-17.075 0-9.395 7.552-17.050 16.87-17.050h337.434c9.344 0 16.896 7.654 16.896 17.050 0 9.472-7.552 17.075-16.896 17.075z" />
<glyph unicode="&#xe606;" d="M836.659 764.599h-134.963v151.040c0 18.56-15.13 33.587-33.741 33.587h-236.211c-18.637 0-33.741-15.027-33.741-33.587v-50.381h-50.611c-18.662 0-33.741-15.002-33.741-33.562v-67.123h-151.91c-18.637 0.026-33.741-15.002-33.741-33.562v-772.198c0-18.586 15.104-33.562 33.741-33.562h354.33v318.976c0 9.242 7.552 16.742 16.87 16.742h337.459v470.042c0 18.56-15.104 33.587-33.741 33.587zM431.718 898.897c0 9.267 7.552 16.742 16.87 16.742h202.47c9.318 0 16.87-7.475 16.87-16.742v-117.504c0-9.267-7.552-16.794-16.87-16.794h-33.741v67.123c0 18.56-15.104 33.562-33.741 33.562h-151.834v33.613zM347.341 814.955c0 9.267 7.552 16.768 16.87 16.768h202.496c9.293 0 16.845-7.501 16.845-16.768v-117.504c0-9.293-7.552-16.768-16.845-16.768h-202.496c-9.318 0-16.87 7.475-16.87 16.768v117.504zM836.659 294.583h-320.589c-18.637 0-33.741-15.053-33.741-33.613v-302.157h-303.718c-9.318 0-16.87 7.526-16.87 16.819v738.586c0 9.293 7.552 16.794 16.87 16.794h134.989v-50.355c0-18.586 15.104-33.613 33.741-33.613h236.211c18.662 0 33.741 15.027 33.741 33.613v50.355h202.47c9.318 0 16.87-7.501 16.87-16.794v-419.635zM549.811 193.847v-268.57l320.589 302.131h-286.848c-18.637 0-33.741-15.027-33.741-33.562z" />
<glyph unicode="&#xe607;" d="M609.831 949.178c-254.398 0-460.616-205.64-460.616-459.277 0-118.023 45.056-225.306 118.469-306.649l-212.729-212.047c-9.977-9.951-9.977-26.125 0-36.103 9.977-9.951 26.204-9.951 36.181 0l212.782 212.152c81.395-72.258 188.337-116.526 305.887-116.526 254.372 0 460.642 205.588 460.642 459.172 0.026 253.637-206.244 459.277-460.616 459.277zM609.831 64.678c-236.229 0-426.509 189.729-426.509 425.196 0 235.52 190.28 425.223 426.509 425.223s426.509-189.729 426.509-425.223c0-235.467-190.28-425.196-426.509-425.196z" horiz-adv-x="1077" />
<glyph unicode="&#xe608;" d="M339.2 812.702h371.2c9.293 0 16.87 7.654 16.87 17.101 0 9.421-7.578 17.050-16.87 17.050h-101.248v17.101c0 47.104-37.76 85.274-84.352 85.274s-84.352-38.17-84.352-85.274v-17.101h-101.248c-9.318 0-16.87-7.629-16.87-17.050 0-9.446 7.552-17.101 16.87-17.101zM474.163 863.953c0 28.262 22.656 51.174 50.637 51.174 27.955 0 50.611-22.938 50.611-51.174v-17.101h-101.222v17.101zM862.259 778.603h-674.918c-18.637 0-33.741-15.309-33.741-34.15v-785.024c0-18.867 15.104-34.15 33.741-34.15h674.893c18.662 0 33.741 15.283 33.741 34.15v785.024c0.026 18.842-15.078 34.15-33.715 34.15zM862.259-23.548c0-9.395-7.552-17.024-16.87-17.024h-641.178c-9.318 0-16.87 7.629-16.87 17.024v750.95c0 9.395 7.552 17.050 16.87 17.050h641.152c9.318 0 16.87-7.654 16.87-17.050v-750.95zM700.518 487.019l-226.586-229.171-119.245 120.602c-6.579 6.682-17.254 6.682-23.859 0-6.579-6.656-6.579-17.485 0-24.090l130.611-132.122c0.179-0.179 0.256-0.486 0.461-0.666 4.966-4.992 12.237-6.246 18.33-3.738 2.074 0.845 4.045 2.074 5.709 3.789 0.102 0.102 0.154 0.256 0.256 0.384l238.208 240.896c6.579 6.682 6.579 17.536 0 24.141-6.605 6.656-17.306 6.656-23.885-0.026z" />
<glyph unicode="&#xe609;" d="M234.325 390.847c6.949 7.802 14.141 15.336 21.699 22.528-50.59 33.353-85.358 101.547-85.358 180.541 0 111.762 69.461 202.289 155.16 202.289 22.65 0 44.056-6.583 63.415-17.969 8.387 7.412 17.286 13.922 26.478 19.797-26.6 18.627-57.198 29.306-89.893 29.306-102.839 0-186.197-104.521-186.197-233.423 0-87.211 38.205-162.987 94.696-203.069zM698.197 796.204c85.65 0 155.136-90.526 155.136-202.289 0-78.97-34.767-147.188-85.382-180.517 7.607-7.241 14.799-14.799 21.772-22.601 56.466 40.058 94.647 115.956 94.647 203.118 0 128.902-83.358 233.423-186.173 233.423-32.67 0-63.244-10.728-89.844-29.355 9.167-5.827 18.018-12.337 26.38-19.749 19.358 11.41 40.789 17.969 63.464 17.969zM895.293 449.068c-4.803-9.411-9.899-18.505-15.531-27.185 68.827-54.15 113.201-138.069 113.201-232.594 0-5.291-0.39-10.411-0.707-15.579h-109.422c0.829-10.289 1.536-20.626 1.536-31.11h135.924c2.194 15.287 3.706 30.793 3.706 46.69 0 106.082-50.615 200.070-128.707 259.779zM144.213 421.884c-5.583 8.68-10.703 17.774-15.482 27.185-78.092-59.709-128.731-153.698-128.731-259.779 0-15.896 1.512-31.403 3.706-46.69h135.924c0 10.508 0.731 20.821 1.56 31.11h-109.422c-0.317 5.169-0.731 10.289-0.731 15.579-0.024 94.525 44.373 178.444 113.176 232.594zM671.451 427.199c16.847 35.060 26.746 76.093 26.746 120.027 0 128.902-83.383 233.448-186.197 233.448s-186.173-104.546-186.173-233.448c0-128.878 83.358-233.399 186.173-233.399 58.295 0 110.251 33.597 144.408 86.162 89.649-50.688 150.382-146.798 150.382-257.39 0-5.266-0.414-10.386-0.731-15.579h-588.117c-0.317 5.193-0.731 10.313-0.731 15.579 0 94.525 44.373 178.469 113.201 232.594-5.608 8.631-10.703 17.774-15.506 27.209-78.092-59.709-128.731-153.722-128.731-259.803 0-15.896 1.512-31.427 3.706-46.714h644.242c2.17 15.287 3.682 30.818 3.682 46.714 0 122.295-67.194 228.547-166.351 284.599zM512 344.913c-85.699 0-155.16 90.575-155.16 202.313 0 111.762 69.461 202.362 155.16 202.362s155.136-90.6 155.136-202.362c0-111.738-69.437-202.313-155.136-202.313z" />
<glyph unicode="&#xe60a;" d="M1024 773.844c-4.054 1.714-8.526 2.654-13.228 2.654h-34.147v31.096c-66.56 23.991-138.386 37.115-213.326 37.115-71.429 0-139.87-12.225-203.755-34.085h-53.29c-63.885 21.859-132.347 34.085-203.755 34.085-74.94 0-146.787-13.124-213.326-37.115v-31.096h-34.147c-18.85 0-34.126-15.276-34.126-34.126v-665.328c0-18.871 15.276-34.147 34.126-34.147h409.6v-17.032c0-9.425 7.649-17.074 17.053-17.074h102.4c9.404 0 17.053 7.649 17.053 17.074v17.032h409.621c4.702 0 9.153 0.961 13.228 2.654v728.294zM584.098 608.29l0.878 167.811v10.177c53.833 15.966 110.090 24.68 169.796 24.68 65.39 0 128.376-10.846 187.705-29.905v-621.38c-56.822 16.886-116.82 26.436-179.179 26.436s-121.501-7.941-178.322-24.848l-0.878 58.661v388.368zM123.298 786.048c53.854 15.924 110.968 24.889 170.674 24.889 65.39 0 127.498-10.742 186.828-29.78v-172.763l0.878-388.535-0.878-61.189c-56.801 16.906-115.942 27.397-178.301 27.397-62.38 0-122.378-9.55-179.2-26.436v626.416zM1010.772 94.117c0-9.425-7.649-17.053-17.074-17.053h-921.6c-9.425 0-17.074 7.628-17.074 17.053v631.181c0 9.446 7.649 17.074 17.074 17.074h17.053v-625.748c63.467 23.071 132.368 35.694 204.8 35.694 78.012 0 153.496-15.276 222.417-41.9-0.084 0.084 0 17.805 0 17.805v648.276h33.061v-666.081c63.425 23.071 132.911 41.9 205.343 41.9 77.991 0 152.931-14.691 221.853-41.336v631.39h17.053c9.425 0 17.074-7.628 17.074-17.074v-631.181z" />
<glyph unicode="&#xe60b;" d="M226.604 791.052h-117.61c-9.291 0-16.809-7.468-16.809-16.634 0-9.191 7.518-16.634 16.809-16.634h117.61c9.291 0 16.809 7.443 16.809 16.634 0 9.166-7.543 16.634-16.809 16.634zM277.004 857.662h-218.437c-18.532 0-33.592-14.91-33.592-33.292v-865.829c0-18.357 15.060-33.268 33.592-33.268h218.437c18.557 0 33.617 14.91 33.617 33.268v865.829c0 18.382-15.060 33.292-33.617 33.292zM277.004-24.801c0-9.166-7.518-16.659-16.809-16.659h-184.82c-9.291 0-16.809 7.493-16.809 16.659v832.537c0 9.191 7.518 16.634 16.809 16.634h184.82c9.291 0 16.809-7.443 16.809-16.634v-832.537zM226.604 707.834h-117.61c-9.291 0-16.809-7.468-16.809-16.659 0-9.166 7.518-16.634 16.809-16.634h117.61c9.291 0 16.809 7.468 16.809 16.634 0 9.191-7.543 16.659-16.809 16.659zM915.456 791.052h-218.412c-18.557 0-33.617-14.935-33.617-33.268v-799.244c0-18.357 15.060-33.268 33.617-33.268h218.412c18.557 0 33.617 14.91 33.617 33.268v799.244c0 18.332-15.060 33.268-33.617 33.268zM915.456-24.801c0-9.166-7.518-16.659-16.784-16.659h-184.82c-9.266 0-16.809 7.493-16.809 16.659v765.927c0 9.191 7.543 16.659 16.809 16.659h184.82c9.266 0 16.784-7.468 16.784-16.659v-765.927zM226.604 624.59h-117.61c-9.291 0-16.809-7.468-16.809-16.684 0-9.191 7.518-16.634 16.809-16.634h117.61c9.291 0 16.809 7.443 16.809 16.634 0 9.216-7.543 16.684-16.809 16.684zM865.080 724.467h-117.61c-9.291 0-16.834-7.468-16.834-16.634 0-9.216 7.543-16.659 16.834-16.659h117.61c9.266 0 16.784 7.443 16.784 16.659 0 9.166-7.518 16.634-16.784 16.634zM167.786 191.663c-32.468 0-58.793-26.1-58.793-58.268 0-32.219 26.324-58.293 58.793-58.293s58.793 26.075 58.793 58.293c0.025 32.169-26.299 58.268-58.793 58.268zM167.786 101.001c-18.057 0-32.668 14.536-32.668 32.393 0 17.833 14.611 32.368 32.668 32.368 18.032 0 32.668-14.536 32.668-32.368 0-17.858-14.636-32.393-32.668-32.393zM806.238 191.663c-32.468 0-58.793-26.1-58.793-58.268 0-32.219 26.324-58.293 58.793-58.293 32.493 0 58.818 26.075 58.818 58.293 0.025 32.169-26.324 58.268-58.818 58.268zM806.238 101.001c-18.032 0-32.668 14.536-32.668 32.393 0 17.833 14.636 32.368 32.668 32.368 18.057 0 32.693-14.536 32.693-32.368 0-17.858-14.636-32.393-32.693-32.393zM865.080 641.199h-117.61c-9.291 0-16.834-7.443-16.834-16.609 0-9.216 7.543-16.684 16.834-16.684h117.61c9.266 0 16.784 7.468 16.784 16.684 0 9.166-7.518 16.609-16.784 16.609zM596.243 924.247h-218.437c-18.557 0-33.617-14.885-33.617-33.268v-932.439c0-18.357 15.060-33.268 33.617-33.268h218.437c18.532 0 33.617 14.91 33.617 33.268v932.439c0 18.382-15.085 33.268-33.617 33.268zM596.243-24.801c0-9.166-7.543-16.659-16.834-16.659h-184.795c-9.291 0-16.784 7.493-16.784 16.659v899.122c0 9.191 7.518 16.659 16.784 16.659h184.795c9.291 0 16.834-7.468 16.834-16.659v-899.122zM487.024 191.663c-32.468 0-58.793-26.1-58.793-58.268 0-32.219 26.324-58.293 58.793-58.293 32.493 0 58.793 26.075 58.793 58.293 0 32.169-26.299 58.268-58.793 58.268zM487.024 101.001c-18.057 0-32.668 14.536-32.668 32.393 0 17.833 14.611 32.368 32.668 32.368s32.693-14.536 32.693-32.368c0-17.858-14.636-32.393-32.693-32.393zM865.080 557.955h-117.61c-9.291 0-16.834-7.468-16.834-16.634s7.543-16.659 16.834-16.659h117.61c9.266 0 16.784 7.493 16.784 16.659s-7.518 16.634-16.784 16.634zM545.817 691.175h-117.61c-9.291 0-16.809-7.468-16.809-16.634 0-9.216 7.518-16.684 16.809-16.684h117.61c9.291 0 16.809 7.468 16.809 16.684 0 9.166-7.493 16.634-16.809 16.634zM545.817 774.419h-117.61c-9.291 0-16.809-7.443-16.809-16.634 0-9.216 7.518-16.659 16.809-16.659h117.61c9.291 0 16.809 7.443 16.809 16.659 0 9.191-7.493 16.634-16.809 16.634zM545.817 857.662h-117.61c-9.291 0-16.809-7.443-16.809-16.609 0-9.241 7.518-16.684 16.809-16.684h117.61c9.291 0 16.809 7.443 16.809 16.684 0 9.166-7.493 16.609-16.809 16.609z" horiz-adv-x="999" />
<glyph unicode="&#xe60c;" d="M273.058 949.198h-238.917c-18.857 0-34.142-15.26-34.142-34.117v-238.942c0-18.857 15.285-34.117 34.142-34.117h238.917c18.857 0 34.142 15.26 34.142 34.117v238.942c0 18.857-15.285 34.117-34.142 34.117zM273.058 693.198c0-9.441-7.643-17.083-17.058-17.083h-204.8c-9.416 0-17.058 7.643-17.058 17.083v204.825c0 9.366 7.643 17.058 17.058 17.058h204.8c9.416 0 17.058-7.692 17.058-17.058v-204.825zM273.058 590.798h-238.917c-18.857 0-34.142-15.285-34.142-34.167v-238.892c0-18.857 15.285-34.117 34.142-34.117h238.917c18.857 0 34.142 15.26 34.142 34.117v238.892c0 18.882-15.285 34.167-34.142 34.167zM273.058 334.798c0-9.416-7.643-17.083-17.058-17.083h-204.8c-9.416 0-17.058 7.668-17.058 17.083v204.775c0 9.441 7.643 17.058 17.058 17.058h204.8c9.416 0 17.058-7.618 17.058-17.058v-204.775zM273.058 232.398h-238.917c-18.857 0-34.142-15.31-34.142-34.142v-238.942c0-18.857 15.285-34.117 34.142-34.117h238.917c18.857 0 34.142 15.26 34.142 34.117v238.942c0 18.832-15.285 34.142-34.142 34.142zM273.058-23.602c0-9.441-7.643-17.083-17.058-17.083h-204.8c-9.416 0-17.058 7.643-17.058 17.083v204.8c0 9.441 7.643 17.083 17.058 17.083h204.8c9.416 0 17.058-7.643 17.058-17.083v-204.8zM631.458 232.398h-238.917c-18.857 0-34.142-15.285-34.142-34.117v-238.942c0-18.857 15.285-34.117 34.142-34.117h238.917c18.857 0 34.142 15.26 34.142 34.117v238.942c0 18.807-15.285 34.117-34.142 34.117zM631.458-23.602c0-9.441-7.668-17.083-17.083-17.083h-204.8c-9.416 0-17.058 7.643-17.058 17.083v204.8c0 9.441 7.643 17.083 17.058 17.083h204.8c9.416 0 17.083-7.643 17.083-17.083v-204.8zM989.858 590.798h-238.917c-18.832 0-34.142-15.285-34.142-34.167v-238.892c0-18.857 15.31-34.117 34.142-34.117h238.917c18.882 0 34.142 15.26 34.142 34.117v238.892c0 18.882-15.26 34.167-34.142 34.167zM989.858 334.798c0-9.416-7.643-17.083-17.083-17.083h-204.775c-9.416 0-17.083 7.668-17.083 17.083v204.775c0 9.441 7.668 17.058 17.083 17.058h204.775c9.441 0 17.083-7.618 17.083-17.058v-204.775zM989.858 949.198h-238.917c-18.832 0-34.142-15.26-34.142-34.117v-238.942c0-18.857 15.31-34.117 34.142-34.117h238.917c18.882 0 34.142 15.26 34.142 34.117v238.942c0 18.857-15.26 34.117-34.142 34.117zM989.858 693.198c0-9.441-7.643-17.083-17.083-17.083h-204.775c-9.416 0-17.083 7.643-17.083 17.083v204.825c0 9.366 7.668 17.058 17.083 17.058h204.775c9.441 0 17.083-7.692 17.083-17.058v-204.825zM989.858 232.398h-238.917c-18.832 0-34.142-15.285-34.142-34.117v-238.942c0-18.857 15.31-34.117 34.142-34.117h238.917c18.882 0 34.142 15.26 34.142 34.117v238.942c0 18.807-15.26 34.117-34.142 34.117zM989.858-23.602c0-9.441-7.643-17.083-17.083-17.083h-204.775c-9.416 0-17.083 7.643-17.083 17.083v204.8c0 9.441 7.668 17.083 17.083 17.083h204.775c9.441 0 17.083-7.643 17.083-17.083v-204.8zM631.458 949.198h-238.917c-18.857 0-34.142-15.26-34.142-34.117v-238.942c0-18.857 15.285-34.117 34.142-34.117h238.917c18.857 0 34.142 15.26 34.142 34.117v238.942c0 18.857-15.285 34.117-34.142 34.117zM631.458 693.198c0-9.441-7.668-17.083-17.083-17.083h-204.8c-9.416 0-17.058 7.643-17.058 17.083v204.825c0 9.366 7.643 17.058 17.058 17.058h204.8c9.416 0 17.083-7.692 17.083-17.058v-204.825zM631.458 590.798h-238.917c-18.857 0-34.142-15.285-34.142-34.167v-238.892c0-18.857 15.285-34.117 34.142-34.117h238.917c18.857 0 34.142 15.26 34.142 34.117v238.892c0 18.882-15.285 34.167-34.142 34.167zM631.458 334.798c0-9.416-7.668-17.083-17.083-17.083h-204.8c-9.416 0-17.058 7.668-17.058 17.083v204.775c0 9.441 7.643 17.058 17.058 17.058h204.8c9.416 0 17.083-7.618 17.083-17.058v-204.775z" />
<glyph unicode="&#xe60d;" d="M324.403 639.211c-9.421 0-17.075-7.706-17.075-17.203v-137.728c0-9.498 7.654-17.203 17.075-17.203 9.446 0 17.075 7.706 17.075 17.203v137.728c0.026 9.523-7.629 17.203-17.075 17.203zM324.403 226.103c-9.421 0-17.075-7.706-17.075-17.229v-137.702c0-9.498 7.654-17.229 17.075-17.229 9.446 0 17.075 7.731 17.075 17.229v137.702c0.026 9.523-7.629 17.229-17.075 17.229zM222.003 845.803c-9.395 0-17.050-7.731-17.050-17.229v-137.702c0-9.498 7.654-17.229 17.050-17.229 9.446 0 17.075 7.731 17.075 17.229v137.702c0 9.498-7.629 17.229-17.075 17.229zM324.403 845.803c-9.421 0-17.075-7.731-17.075-17.229v-137.702c0-9.498 7.654-17.229 17.075-17.229 9.446 0 17.075 7.731 17.075 17.229v137.702c0.026 9.498-7.629 17.229-17.075 17.229zM222.003 639.211c-9.395 0-17.050-7.706-17.050-17.203v-137.728c0-9.498 7.654-17.203 17.050-17.203 9.446 0 17.075 7.706 17.075 17.203v137.728c0 9.523-7.629 17.203-17.075 17.203zM324.403 432.644c-9.421 0-17.075-7.706-17.075-17.203v-137.702c0-9.523 7.654-17.229 17.075-17.229 9.446 0 17.075 7.706 17.075 17.229v137.702c0.026 9.498-7.629 17.203-17.075 17.203zM119.603 432.644c-9.446 0-17.075-7.706-17.075-17.203v-137.702c0-9.523 7.629-17.229 17.075-17.229 9.472 0 17.075 7.706 17.075 17.229v137.702c0 9.498-7.603 17.203-17.075 17.203zM119.603 639.211c-9.446 0-17.075-7.706-17.075-17.203v-137.728c0-9.498 7.629-17.203 17.075-17.203 9.472 0 17.075 7.706 17.075 17.203v137.728c0 9.523-7.603 17.203-17.075 17.203zM119.603 226.103c-9.446 0-17.075-7.706-17.075-17.229v-137.702c0-9.498 7.629-17.229 17.075-17.229 9.472 0 17.075 7.731 17.075 17.229v137.702c0 9.523-7.603 17.229-17.075 17.229zM222.003 432.644c-9.395 0-17.050-7.706-17.050-17.203v-137.702c0-9.523 7.654-17.229 17.050-17.229 9.446 0 17.075 7.706 17.075 17.229v137.702c0 9.498-7.629 17.203-17.075 17.203zM119.603 845.803c-9.446 0-17.075-7.731-17.075-17.229v-137.702c0-9.498 7.629-17.229 17.075-17.229 9.472 0 17.075 7.731 17.075 17.229v137.702c0 9.498-7.603 17.229-17.075 17.229zM222.003 226.103c-9.395 0-17.050-7.706-17.050-17.229v-137.702c0-9.498 7.654-17.229 17.050-17.229 9.446 0 17.075 7.731 17.075 17.229v137.702c0 9.523-7.629 17.229-17.075 17.229zM426.829 432.644c-9.472 0-17.075-7.706-17.075-17.203v-137.702c0-9.523 7.603-17.229 17.075-17.229 9.395 0 17.024 7.706 17.024 17.229v137.702c0 9.498-7.629 17.203-17.024 17.203zM734.003 226.103c-9.421 0-17.050-7.706-17.050-17.229v-137.702c0-9.498 7.629-17.229 17.050-17.229 9.446 0 17.101 7.731 17.101 17.229v137.702c0 9.523-7.654 17.229-17.101 17.229zM734.003 639.211c-9.421 0-17.050-7.706-17.050-17.203v-137.728c0-9.498 7.629-17.203 17.050-17.203 9.446 0 17.101 7.706 17.101 17.203v137.728c0 9.523-7.654 17.203-17.101 17.203zM836.403 639.211c-9.395 0-17.050-7.706-17.050-17.203v-137.728c0-9.498 7.654-17.203 17.050-17.203 9.446 0 17.101 7.706 17.101 17.203v137.728c0 9.523-7.654 17.203-17.101 17.203zM631.654 639.211c-9.472 0-17.101-7.706-17.101-17.203v-137.728c0-9.498 7.629-17.203 17.101-17.203 9.395 0 17.050 7.706 17.050 17.203v137.728c0 9.523-7.654 17.203-17.050 17.203zM990.054 949.073h-955.75c-18.893 0-34.15-15.437-34.15-34.432v-929.562c0-18.97 15.258-34.406 34.15-34.406h955.75c18.79 0 34.074 15.437 34.074 34.432v929.536c0 18.995-15.283 34.432-34.074 34.432zM990.054 2.334c0-9.523-7.654-17.229-17.101-17.229h-921.6c-9.446 0-17.075 7.706-17.075 17.229v895.078c0 9.523 7.629 17.229 17.075 17.229h921.6c9.446 0 17.101-7.706 17.101-17.229v-895.078zM529.203 432.644c-9.446 0-17.075-7.706-17.075-17.203v-137.702c0-9.523 7.654-17.229 17.075-17.229 9.446 0 17.101 7.706 17.101 17.229v137.702c0 9.498-7.654 17.203-17.101 17.203zM529.203 226.103c-9.446 0-17.075-7.706-17.075-17.229v-137.702c0-9.498 7.654-17.229 17.075-17.229 9.446 0 17.101 7.731 17.101 17.229v137.702c0 9.523-7.654 17.229-17.101 17.229zM426.829 639.211c-9.472 0-17.075-7.706-17.075-17.203v-137.728c0-9.498 7.603-17.203 17.075-17.203 9.395 0 17.024 7.706 17.024 17.203v137.728c0 9.523-7.629 17.203-17.024 17.203zM631.654 226.103c-9.472 0-17.101-7.706-17.101-17.229v-137.702c0-9.498 7.629-17.229 17.101-17.229 9.395 0 17.050 7.731 17.050 17.229v137.702c0 9.523-7.654 17.229-17.050 17.229zM529.203 639.211c-9.446 0-17.075-7.706-17.075-17.203v-137.728c0-9.498 7.654-17.203 17.075-17.203 9.446 0 17.101 7.706 17.101 17.203v137.728c0 9.523-7.654 17.203-17.101 17.203zM426.829 226.103c-9.472 0-17.075-7.706-17.075-17.229v-137.702c0-9.498 7.603-17.229 17.075-17.229 9.395 0 17.024 7.731 17.024 17.229v137.702c0 9.523-7.629 17.229-17.024 17.229z" horiz-adv-x="1050" />
<glyph unicode="&#xe60e;" d="M512 949.123c-282.774 0-512-229.226-512-511.975 0-282.774 229.226-511.975 512-511.975s512 229.201 512 511.975c0 282.749-229.226 511.975-512 511.975zM512-40.735c-263.917 0-477.858 213.941-477.858 477.883s213.941 477.858 477.858 477.858c263.892 0 477.858-213.916 477.858-477.858s-213.966-477.883-477.858-477.883zM783.909 487.549h-400.559l146.132 146.132c6.968 6.993 10.814 16.234 10.814 26.124 0 9.815-3.821 19.106-10.789 26.050l-20.255 20.255c-6.968 6.968-16.209 10.789-26.075 10.789s-19.106-3.796-26.075-10.814l-243.088-243.038c-6.968-6.993-10.789-16.184-10.789-26.1 0-9.84 3.821-19.131 10.789-26.025l243.063-243.063c13.936-13.986 38.238-13.986 52.149-0.025l20.255 20.255c14.386 14.361 14.386 37.788 0 52.124l-144.958 144.958h399.335c20.33 0 36.889 16.534 36.889 36.864v28.672c0.025 20.33-16.509 36.839-36.839 36.839zM785.208 421.988c0-0.699-0.574-1.299-1.324-1.299h-485.176l205.649-205.624c0.524-0.524 0.524-1.374 0-1.873l-20.255-20.255h-1.873l-243.063 243.088c-0.45 0.425-0.45 1.424 0 1.848l243.063 243.063c0.1 0.1 0.375 0.375 0.924 0.375l21.179-20.605v-1.873l-206.823-206.823h486.375c0.724 0 1.324-0.599 1.324-1.349v-28.672z" />
<glyph unicode="&#xe60f;" d="M967.117 891.883c-75.366 76.288-197.632 76.288-273.024 0-38.579-39.014-57.011-90.496-56.038-141.645-95.514 32.922-204.774 13.491-283.75-59.136l-318.976-81.51c-69.402-70.195-32.922-225.894 78.566-377.958-47.386-53.376-46.182-135.219 4.531-186.573 50.714-51.328 131.661-52.557 184.371-4.582 150.298-112.845 304.102-149.76 373.504-79.514l80.563 322.765c68.813 76.698 89.574 181.734 62.336 275.584 53.146-3.226 107.29 15.181 147.917 56.294 75.392 76.314 75.392 199.962 0 276.275zM142.157 69.073c-36.582 36.992-38.682 95.232-7.194 135.245 20.224-25.472 42.317-50.662 66.56-75.162 24.218-24.525 49.126-46.95 74.266-67.379-39.552-31.846-97.050-29.696-133.632 7.296zM943.411 639.595c-49.152-49.664-122.291-59.981-181.581-31.258 1.92-3.251 3.533-6.579 5.325-9.856 45.645-85.632 39.552-192-18.739-271.898-0.41-0.538-0.794-0.973-1.152-1.51-3.226-4.352-6.758-8.525-10.291-12.723-65.715 33.613-136.653 85.76-203.162 153.037-31.974 32.358-60.39 65.741-85.12 99.098l-34.15-9.139c27.264-38.554 59.11-77.005 95.59-113.894 68.378-69.171 141.901-122.419 211.43-157.21l-68.966-299.238c-72.141-73.037-263.501 2.253-427.392 168.064-163.891 165.862-238.285 359.501-166.118 432.512l309.786 73.139c2.995 2.995 6.144 5.734 9.242 8.474 5.53 5.018 11.213 9.779 17.075 14.182 0.512 0.41 0.973 0.768 1.485 1.178 84.147 62.822 197.99 65.92 285.056 9.293-0.051 0.102-0.077 0.23-0.128 0.307 0.742-0.512 1.562-0.845 2.304-1.408-24.602 58.752-13.338 129.229 33.997 177.101 62.31 63.027 163.251 63.027 225.562 0 62.182-63.027 62.182-165.222-0.051-228.25zM753.459 831.799c-42.598-43.11-42.598-113.024 0-156.109 42.624-43.162 111.693-43.162 154.317 0 42.624 43.085 42.624 112.998 0 156.109-42.624 43.136-111.693 43.136-154.317 0zM884.045 699.678c-29.491-29.85-77.338-29.85-106.854 0-29.491 29.875-29.491 78.285 0 108.134s77.338 29.85 106.854 0 29.517-78.259 0-108.134z" horiz-adv-x="1050" />
<glyph unicode="&#xe610;" d="M499.2 949.252c-261.555 0-473.6-206.285-473.6-460.8 0-125.44 51.712-239.002 135.322-322.099v-241.075l211.763 119.654c40.269-11.034 82.611-17.254 126.515-17.254 261.555 0 473.6 206.31 473.6 460.774 0 254.515-212.045 460.8-473.6 460.8zM499.2 61.803c63.258 0-64.384-7.117-131.994 21.376l-172.467-100.506v199.501c-7.45 6.707-19.328 18.048-32.589 33.229h-0.179c-1.101 1.306-23.014 26.752-32.256 42.419-44.365 66.458-70.298 145.536-70.298 230.63 0 235.648 196.89 426.675 439.782 426.675 242.867 0 439.782-191.027 439.782-426.675 0-235.622-196.915-426.65-439.782-426.65z" horiz-adv-x="998" />
<glyph unicode="&#xe611;" d="M989.85 821.278h-955.725c-18.842 0-34.125-15.155-34.125-33.766v-726.093c0-18.637 15.283-33.766 34.125-33.766h955.725c18.842 0 34.15 15.155 34.15 33.766v726.093c0 18.611-15.309 33.766-34.15 33.766zM965.171 787.511l-420.659-416.23c-13.338-13.184-34.944-13.184-48.282 0l-420.685 416.23h889.626zM34.125 770.641c0 2.867 0.922 5.427 2.227 7.859l348.339-344.678c-65.382-50.176-268.954-206.438-350.566-269.133v605.952zM989.85 78.289c0-9.293-7.629-16.87-17.050-16.87h-921.6c-9.421 0-17.075 7.578-17.075 16.87v44.237l374.579 287.565 87.501-86.579c13.338-13.21 34.944-13.21 48.282 0 0 0 32.358 32.026 80.205 79.334l365.158-280.32v-44.237zM989.85 164.689c-81.331 62.413-301.594 231.552-341.146 261.914 106.65 105.523 266.854 264.013 341.146 337.536v-599.45z" />
<glyph unicode="&#xe612;" d="M499.512 641.923c9.541 0 17.283 7.668 17.283 17.083v273.058c0 9.416-7.742 17.083-17.283 17.083s-17.283-7.668-17.283-17.083v-273.083c0-9.391 7.742-17.058 17.283-17.058zM585.953 804.214v-34.766c187.717-39.262 328.554-203.626 328.554-400.609 0-226.229-185.794-409.6-414.995-409.6s-415.020 183.396-415.020 409.6c0 196.983 140.887 361.347 328.554 400.609v34.766c-206.873-39.811-363.095-219.511-363.095-435.35 0-245.011 201.278-443.742 449.561-443.742s449.561 198.731 449.561 443.742c0 215.839-156.222 395.539-363.12 435.35z" horiz-adv-x="999" />
<glyph unicode="&#xe613;" d="M443.725 613.969h-341.325c-9.421 0-17.075-7.731-17.075-17.229v-516.915c0-9.549 7.629-17.229 17.075-17.229h341.325c9.421 0 17.075 7.68 17.075 17.229v516.915c0 9.498-7.629 17.229-17.075 17.229zM426.675 114.308c0-9.523-7.629-17.229-17.075-17.229h-273.075c-9.421 0-17.075 7.706-17.075 17.229v448c0 9.523 7.654 17.229 17.075 17.229h273.075c9.421 0 17.075-7.706 17.075-17.229v-448zM904.55 269.342h-358.426c-18.842 0-34.125-15.411-34.125-34.458v-137.83c0-19.072 15.283-34.483 34.125-34.483h358.426c18.816 0 34.099 15.411 34.099 34.483v137.83c0 19.072-15.283 34.458-34.099 34.458zM904.55 114.308c0-9.523-7.654-17.229-17.101-17.229h-324.25c-9.421 0-17.075 7.706-17.075 17.229v103.373c0 9.523 7.654 17.229 17.075 17.229h324.25c9.446 0 17.101-7.706 17.101-17.229v-103.373zM904.55 613.969h-358.426c-18.842 0-34.125-15.437-34.125-34.458v-224.026c0-19.021 15.283-34.483 34.125-34.483h358.426c18.816 0 34.099 15.462 34.099 34.483v224.026c0 19.046-15.283 34.458-34.099 34.458zM904.55 372.715c0-9.472-7.654-17.229-17.101-17.229h-324.25c-9.421 0-17.075 7.757-17.075 17.229v189.568c0 9.523 7.654 17.229 17.075 17.229h324.25c9.446 0 17.101-7.706 17.101-17.229v-189.568zM102.4 803.537c-18.842 0-34.125-15.462-34.125-34.509s15.283-34.406 34.125-34.406 34.125 15.411 34.125 34.432-15.283 34.483-34.125 34.483zM307.2 803.537c-18.842 0-34.125-15.462-34.125-34.509s15.283-34.406 34.125-34.406 34.125 15.411 34.125 34.432-15.283 34.483-34.125 34.483zM989.85 872.452h-955.725c-18.842 0-34.125-15.462-34.125-34.483v-827.059c0-19.098 15.283-34.483 34.125-34.483h955.725c18.842 0 34.15 15.386 34.15 34.483v827.059c0 19.021-15.309 34.483-34.15 34.483zM989.85 28.139c0-9.523-7.629-17.229-17.050-17.229h-921.6c-9.421 0-17.075 7.706-17.075 17.229v620.288c0 9.498 7.654 17.229 17.075 17.229h921.6c9.421 0 17.050-7.731 17.050-17.229v-620.288zM989.85 700.139h-955.725v120.627c0 9.472 7.654 17.203 17.075 17.203h921.6c9.421 0 17.050-7.731 17.050-17.203v-120.627zM204.8 803.537c-18.842 0-34.125-15.462-34.125-34.509s15.283-34.406 34.125-34.406 34.125 15.411 34.125 34.432-15.283 34.483-34.125 34.483z" />
<glyph unicode="&#xe614;" d="M768.154 385.105c21.658 53.786 33.997 115.046 33.997 180.147 0 212.096-129.894 384.026-290.15 384.026-160.23 0-290.125-171.93-290.125-384.026 0-212.070 129.894-383.974 290.125-383.974 101.146 0 190.131 68.608 242.048 172.467 136.090-80.435 228.992-226.15 234.957-394.368h-954.010c5.299 149.965 79.846 282.035 192.333 365.978-5.325 10.214-10.368 20.71-15.002 31.488-128.461-93.005-212.326-243.789-212.326-414.49 0-5.786 0.666-11.341 0.87-17.101h1022.285c0.179 5.734 0.845 11.315 0.845 17.101 0 189.286-103.040 354.15-255.846 442.752zM512 215.403c-138.88 0-256 150.451-256 341.325 0 190.848 117.12 358.426 256 358.426s256-150.477 256-341.35-117.12-358.4-256-358.4z" />
<glyph unicode="&#xe615;" d="M953.685 716.651l0.289 0.289 14.257 14.231c38.754 38.702 32.374 107.809-14.257 154.388s-115.87 52.985-154.65 14.231l-14.257-14.205-0.761-0.788-15.045-15.019c-0.079-0.079-0.131-0.158-0.21-0.236l-8.087-8.087 0.158-0.158-663.657-662.318-83.338-181.799c-14.126-49.126 25.127-90.716 71.286-71.155 1.129 0.525 182.062 83.207 182.062 83.207l-0.945 0.971 662.869 661.898c2.206-1.654 4.437-3.282 6.459-5.278 23.316-23.316 23.316-61.072 0-84.309l-295.568-295.122c-6.643-6.669-6.643-17.434 0-24.13 6.669-6.617 17.487-6.617 24.156 0l295.542 295.122c36.654 36.628 36.654 95.915 0 132.516-2.022 2.048-4.149 3.938-6.302 5.75zM929.845 861.482c33.083-33.057 35.236-85.228 0-120.438l-120.648 120.438c35.262 35.236 87.565 33.083 120.648 0zM109.515-5.794c-43.848-22.187-76.616-8.166-48.233 48.181l60.311 132.49 120.622-120.438c0.026 0-131.702-59.733-132.7-60.232zM266.371 78.542l-120.543 120.359 9.899 9.82 608.177 607.285c0.814 0.866 1.549 1.812 2.416 2.678l18.747 18.721 120.648-120.464-639.344-638.398z" />
<glyph unicode="&#xe616;" d="M512 949.148c-282.774 0-512-229.251-512-512.025 0-282.749 229.226-511.975 512-511.975s512 229.226 512 511.975c0 282.774-229.226 512.025-512 512.025zM512-40.76c-263.917 0-477.858 213.966-477.858 477.883 0 263.942 213.941 477.908 477.858 477.908 263.892 0 477.858-213.941 477.858-477.908 0-263.892-213.966-477.883-477.858-477.883zM566.896 706.085c-6.943 6.968-16.209 10.814-26.075 10.814s-19.106-3.821-26.075-10.814l-20.255-20.255c-6.968-6.943-10.814-16.209-10.814-26.1 0-9.84 3.846-19.081 10.814-26.050l146.132-146.157h-400.534c-20.305 0-36.864-16.534-36.864-36.914v-28.622c0-20.305 16.559-36.889 36.864-36.889h399.335l-144.933-144.933c-14.386-14.386-14.386-37.763 0-52.174l20.255-20.23c13.936-13.936 38.238-13.961 52.149 0l243.063 243.063c6.943 6.943 10.814 16.209 10.814 26.050 0 9.865-3.846 19.131-10.814 26.1l-243.063 243.113zM784.834 436.024l-243.063-243.063h-1.848l-20.28 20.23c-0.524 0.549-0.524 1.374 0 1.923l205.624 205.599h-485.176c-0.724 0-1.324 0.549-1.324 1.324v28.622c0 0.749 0.599 1.324 1.324 1.324h486.4l-206.848 206.873v1.848l21.179 20.655c0.524 0 0.824-0.3 0.924-0.4l243.063-243.038c0.45-0.5 0.45-1.449 0.025-1.898z" />
<glyph unicode="&#xe617;" d="M1048.478 552.249l-343.235 66.072-168.765 306.42-0.098-0.122-0.073 0.122-168.765-306.42-343.259-66.072 238.933-255.439-43.349-347.258 316.514 153.966 316.514-153.966-43.374 347.258 238.958 255.439zM809.862 17.55l1.097-9.362-274.578 129.512-274.603-129.512 1.122 9.362 0.414 0.463 34.133 290.84-204.8 222.427 297.399 61.586 146.334 280.527 146.334-280.552 297.374-61.586-204.776-222.427 34.133-290.84 0.414-0.439z" horiz-adv-x="1048" />
<glyph unicode="&#xe618;" d="M918.974 563.445c0 215.408-176.338 390.013-393.846 390.013s-393.846-173.634-393.846-387.807c0-82.209 25.968-158.405 70.236-221.105l-0.026-0.026 323.637-440.294 323.61 436.933c44.295 63.068 70.236 139.684 70.236 222.287zM525.128-38.431l-292.601 398.231c-42.142 58.027-67.006 129.077-67.006 205.877 0 195.558 161.004 354.068 359.608 354.068v-0.184c198.603 0 359.582-159.403 359.582-356.116 0-77.141-24.812-148.611-66.98-206.953l-292.601-394.923zM525.128 767.352c-113.48 0-205.483-90.9-205.483-202.988 0-112.141 92.002-203.041 205.483-203.041s205.483 90.9 205.483 203.041c0 112.089-92.002 202.988-205.483 202.988zM525.128 394.853c-94.733 0-171.533 75.907-171.533 169.511 0 93.552 76.8 169.433 171.533 169.433 94.707 0 171.507-75.881 171.507-169.433 0-93.63-76.8-169.511-171.507-169.511z" />
<glyph unicode="&#xe619;" d="M511.65 899.222l-511.65-118.634v-677.913l511.026-152.501 512.974 152.501v677.913l-512.35 118.634zM494.942-10.74l-460.8 139.913v600.638l460.8-114.688v-625.864zM51.2 763.654l460.8 101.676 460.8-101.676-460.8-118.634-460.8 118.634zM989.858 128.125l-460.775-138.914v626.388l460.775 114.188v-601.662z" />
<glyph unicode="&#xe61a;" d="M967.632 241.918h-97.637v179.009c0 17.98-14.55 32.554-32.554 32.554h-309.153v179.009h97.637c17.98 0 32.554 14.55 32.554 32.53v227.828c0 17.98-14.574 32.53-32.554 32.53h-227.804c-17.98 0-32.554-14.55-32.554-32.53v-227.828c0-17.98 14.574-32.53 32.554-32.53h97.637v-179.009h-309.224c-17.98 0-32.554-14.574-32.554-32.554v-179.009h-97.637c-17.956 0-32.53-14.598-32.53-32.554v-227.828c0-17.98 14.574-32.53 32.554-32.53h227.828c17.956 0 32.53 14.55 32.53 32.53v227.828c0 17.956-14.574 32.53-32.53 32.53h-97.637v162.721c0 9.002 7.287 16.289 16.265 16.289h292.912v-179.009h-97.637c-17.98 0-32.554-14.574-32.554-32.53v-227.828c0-17.98 14.574-32.53 32.554-32.53h227.804c17.98 0 32.554 14.55 32.554 32.53v227.828c0 17.956-14.574 32.53-32.554 32.53h-97.637v179.009h292.912c9.002 0 16.265-7.287 16.265-16.289v-162.721h-97.637c-17.956 0-32.53-14.574-32.53-32.53v-227.828c0-17.98 14.574-32.53 32.53-32.53h227.804c18.003 0 32.554 14.55 32.554 32.53v227.828c0.024 17.956-14.527 32.554-32.53 32.554zM267.907 209.364c8.978 0 16.289-7.287 16.289-16.289v-195.274c0-9.002-7.287-16.289-16.289-16.289h-195.274c-8.978 0-16.265 7.287-16.265 16.289v195.274c0 9.002 7.287 16.289 16.265 16.289h195.274zM609.637 209.364c9.002 0 16.289-7.287 16.289-16.289v-195.274c0-9.002-7.287-16.289-16.289-16.289h-195.274c-8.978 0-16.265 7.287-16.265 16.289v195.274c0 9.002 7.287 16.289 16.265 16.289h195.274zM414.363 664.996c-8.978 0-16.265 7.287-16.265 16.289v195.298c0 8.93 7.287 16.265 16.265 16.265h195.274c9.002 0 16.289-7.335 16.289-16.265v-195.298c0-9.002-7.287-16.289-16.289-16.289h-195.274zM967.632-2.175c0-9.002-7.263-16.289-16.265-16.289h-195.274c-8.978 0-16.289 7.287-16.289 16.289v195.274c0 9.002 7.311 16.289 16.289 16.289h195.274c9.002 0 16.265-7.287 16.265-16.289v-195.274z" horiz-adv-x="1000" />
<glyph unicode="&#xe61b;" d="M583.552 641.975h286.848l-320.563 307.226v-273.075c0-18.842 15.078-34.15 33.715-34.15zM391.782 399.979c-6.605 6.707-17.28 6.733-23.859 0.051-6.579-6.656-6.579-17.485 0-24.090l107.392-108.595-107.187-108.416c-6.579-6.682-6.579-17.459 0-24.115s17.254-6.682 23.834-0.026l107.187 108.416 107.366-108.621c6.605-6.682 17.28-6.682 23.859 0 6.579 6.605 6.579 17.459 0 24.064l-107.392 108.621 107.187 108.39c6.579 6.656 6.579 17.485-0.026 24.141s-17.254 6.682-23.859 0l-107.162-108.416-107.341 108.595zM516.070 624.926v324.275h-354.33c-18.637 0-33.741-15.334-33.741-34.125v-955.75c0-18.867 15.104-34.125 33.741-34.125h674.893c18.662 0 33.741 15.258 33.741 34.125v648.499h-337.434c-9.318 0-16.87 7.629-16.87 17.101zM836.659-23.625c0-9.421-7.552-17.050-16.845-17.050h-641.203c-9.318 0-16.87 7.629-16.87 17.050v921.626c0 9.395 7.552 17.075 16.87 17.075h303.718v-307.251c0-18.842 15.104-34.099 33.741-34.099h320.563v-597.35z" />
<glyph unicode="&#xe61c;" d="M583.552 641.975h286.848l-320.589 307.2v-273.050c0-18.842 15.104-34.15 33.741-34.15zM516.070 624.926v324.25h-354.33c-18.637 0-33.741-15.283-33.741-34.125v-955.725c0-18.842 15.104-34.15 33.741-34.15h674.893c18.662 0 33.741 15.309 33.741 34.15v648.499h-337.434c-9.318 0-16.87 7.654-16.87 17.101zM836.659-23.625c0-9.395-7.552-17.050-16.845-17.050h-641.178c-9.318 0-16.87 7.654-16.87 17.050v921.6c0 9.446 7.552 17.075 16.87 17.075h303.693v-307.226c0-18.842 15.104-34.15 33.741-34.15h320.563v-597.299zM500.787 432.388c-6.605-6.63-6.605-17.306 0-23.885l126.387-126.643h-296.704c-9.318 0-16.87-7.629-16.87-16.896 0-9.37 7.552-16.922 16.87-16.922h297.062l-123.699-123.955c-6.477-6.528-6.477-17.050 0-23.552s16.998-6.502 23.45 0l151.757 152.090c0.205 0.154 0.512 0.205 0.691 0.41 3.302 3.328 4.915 7.706 4.89 12.058 0.026 4.25-1.587 8.499-4.838 11.802 0 0 0 0-0.026 0-0.026 0.026-0.026 0.026-0.026 0.077l-155.11 155.418c-6.579 6.605-17.254 6.605-23.834 0z" />
<glyph unicode="&#xe61d;" d="M636.646 697.681v251.52h-284.928c-19.686 0-35.635-16.102-35.635-35.994v-179.61h-178.074c-19.661 0-35.61-16.102-35.61-35.917v-736.563c0-19.814 15.949-35.891 35.61-35.891h534.272c19.686 0 35.635 16.077 35.635 35.891v179.661h178.099c19.661 0 35.61 16.102 35.61 35.917v503.014h-267.187c-9.779 0-17.792 8.013-17.792 17.971zM672.282-20.962c0-9.907-7.987-17.946-17.818-17.946h-498.637c-9.83 0-17.818 8.038-17.818 17.946v700.672c0 9.958 7.987 17.971 17.818 17.971h231.501v-233.549c0-19.84 15.949-35.891 35.61-35.891h249.318v-449.203zM885.99 194.641c0-9.907-8.013-17.971-17.818-17.971h-160.282v287.462h-267.136c-9.83 0-17.818 8.013-17.818 17.946v251.52h-71.219v161.715c0 9.907 7.987 17.869 17.792 17.869h231.526v-233.498c0-19.84 15.949-35.891 35.61-35.891h249.344v-449.152zM707.891 715.627h213.709l-249.318 233.574v-197.606c0-19.891 15.949-35.968 35.61-35.968zM458.573 535.966c0-19.814 15.949-35.891 35.61-35.891h213.709l-249.318 233.523v-197.632z" />
<glyph unicode="&#xe61e;" d="M166.595 657.647c-9.192 0-16.677-7.607-16.677-16.945v-407.089c0-9.338 7.461-16.92 16.677-16.92s16.652 7.607 16.652 16.92v407.089c0.024 9.338-7.436 16.945-16.652 16.945zM916.334 827.241h-833.024c-46.007 0-83.31-37.986-83.31-84.797v-610.572c0-46.86 37.303-84.821 83.31-84.821h833.024c46.007 0 83.285 37.961 83.285 84.821v610.572c0 46.811-37.278 84.797-83.285 84.797zM966.29 165.762c0-46.811-37.278-84.821-83.285-84.821h-766.391c-46.007 0-83.31 38.034-83.31 84.821v542.769c0 46.811 37.303 84.797 83.31 84.797h766.391c46.007 0 83.285-37.986 83.285-84.797v-542.769z" />
<glyph unicode="&#xe61f;" d="M809.677 590.75h-34.534v119.475c0 131.917-108.237 238.925-241.69 238.925-133.504 0-241.715-107.008-241.715-238.925v-119.475h-51.814c-47.667 0-86.323-38.195-86.323-85.325v-494.95c0-47.13 38.656-85.325 86.323-85.325h569.754c47.667 0 86.323 38.195 86.323 85.325v494.95c0 47.13-38.656 85.325-86.323 85.325zM326.246 718.724c0 108.39 97.536 196.326 207.206 196.326 109.645 0 207.155-87.936 207.155-196.326v-127.974h-414.362v127.974zM861.466 44.625c0-47.155-38.656-85.35-86.323-85.35h-500.685c-47.667 0-86.323 38.195-86.323 85.35v426.675c0 47.13 38.63 85.35 86.323 85.35h500.71c47.667 0 86.323-38.221 86.323-85.35v-426.675z" />
<glyph unicode="&#xe620;" d="M771.121 553.76h-403.285l-47.128 79.994c-52.224 88.674-14.117 206.019 76.337 257.243 90.453 51.151 213.211 24.844 265.435-63.805l22.235-37.79 28.477 16.116-18.139 30.793c-63.586 107.934-204.361 144.896-314.466 82.603-110.104-62.342-147.822-200.314-84.261-308.273l33.524-56.881h-101.352c-45.397 0-82.213-36.084-82.213-80.628v-467.407c0-44.52 36.815-80.603 82.213-80.603h542.622c45.397 0 82.213 36.059 82.213 80.603v467.407c0 44.544-36.815 80.628-82.213 80.628zM820.443 37.981c0-44.52-36.815-80.628-82.213-80.628h-476.843c-45.397 0-82.213 36.084-82.213 80.628v402.92c0 44.52 36.815 80.628 82.213 80.628h476.867c45.397 0 82.213-36.084 82.213-80.628v-402.92z" />
<glyph unicode="&#xe621;" d="M273.075 598.916c0 42.368-34.381 76.774-76.8 76.774s-76.8-34.406-76.8-76.774c0-42.47 34.381-76.826 76.8-76.826s76.8 34.355 76.8 76.826zM153.6 598.916c0 23.501 19.098 42.65 42.675 42.65s42.675-19.149 42.675-42.65c0-23.603-19.123-42.675-42.675-42.675s-42.675 19.072-42.675 42.675zM512 948.74c-280.858 0-508.8-226.202-511.846-506.266l33.997 0.922v27.469h2.099c17.587 247.91 223.386 443.725 475.75 443.725 263.91 0 477.85-213.914 477.85-477.875 0-263.859-213.939-477.798-477.85-477.798-4.045 0-8.013 0.358-11.981 0.64l-158.694 460.134-5.683 17.024h-301.517v3.635l-34.125-3.635v-34.074c0 0 231.347 0 313.088 0l164.787-477.824h34.125c282.778 0 512 229.197 512 511.898 0 282.778-229.222 512.026-512 512.026zM742.4 760.964c-42.394 0-76.8-34.355-76.8-76.774 0-42.394 34.406-76.8 76.8-76.8s76.8 34.406 76.8 76.8c0 42.445-34.406 76.774-76.8 76.774zM742.4 641.566c-23.552 0-42.65 19.072-42.65 42.624 0 23.578 19.098 42.675 42.65 42.675s42.65-19.098 42.65-42.675c0-23.552-19.098-42.624-42.65-42.624zM426.675 752.465c0 42.419-34.381 76.774-76.8 76.774s-76.8-34.355-76.8-76.774c0-42.394 34.381-76.774 76.8-76.774s76.8 34.381 76.8 76.774zM307.2 752.465c0 23.552 19.098 42.624 42.675 42.624s42.675-19.072 42.675-42.624c0-23.578-19.123-42.675-42.675-42.675s-42.675 19.098-42.675 42.675zM554.65 709.79c42.419 0 76.8 34.432 76.8 76.774 0 42.419-34.381 76.826-76.8 76.826-42.394 0-76.8-34.406-76.8-76.826 0.026-42.342 34.406-76.774 76.8-76.774zM554.65 829.239c23.578 0 42.701-19.098 42.701-42.675s-19.123-42.65-42.701-42.65c-23.552 0-42.65 19.072-42.65 42.65s19.098 42.675 42.65 42.675zM761.446 329.399c-36.736-21.222-49.306-68.198-28.109-104.934s68.173-49.331 104.909-28.109c36.762 21.171 49.331 68.173 28.109 104.909-21.197 36.736-68.147 49.306-104.909 28.134zM821.197 225.95c-20.403-11.776-46.49-4.813-58.291 15.59-11.776 20.403-4.813 46.464 15.616 58.266 20.403 11.776 46.49 4.762 58.266-15.642 11.802-20.352 4.813-46.438-15.59-58.214zM921.6 479.441c0 42.394-34.406 76.8-76.8 76.8s-76.8-34.406-76.8-76.8c0-42.419 34.406-76.8 76.8-76.8s76.8 34.381 76.8 76.8zM844.8 436.715c-23.552 0-42.65 19.149-42.65 42.726 0 23.552 19.098 42.65 42.65 42.65s42.65-19.098 42.65-42.65c0-23.578-19.098-42.726-42.65-42.726z" />
<glyph unicode="&#xe622;" d="M715.227 949.173h-681.16c-18.832 0-34.067-15.235-34.067-34.092v-955.742c0-18.857 15.235-34.167 34.067-34.167h681.16c18.807 0 34.042 15.31 34.042 34.167v955.742c0 18.857-15.235 34.092-34.042 34.092zM238.392-40.66h-187.317c-9.391 0-17.033 7.643-17.033 17.058v597.342h204.35v-614.4zM715.227-23.602c0-9.416-7.643-17.058-17.033-17.058h-425.734v273.083h442.768v-256.025zM715.227 266.54h-442.768v307.2h442.768v-307.2zM715.227 607.881h-681.16v290.117c0 9.441 7.618 17.083 17.033 17.083h647.118c9.391 0 17.033-7.643 17.033-17.083v-290.117z" horiz-adv-x="749" />
<glyph unicode="&#xe623;" d="M489.412 676.297c10.812 0 19.576 8.764 19.576 19.516 0 10.722-8.764 19.456-19.576 19.456s-19.576-8.734-19.576-19.456c0-10.752 8.764-19.516 19.576-19.516zM489.412 598.383c10.812 0 19.576 8.704 19.576 19.456 0 10.782-8.764 19.486-19.576 19.486s-19.576-8.704-19.576-19.486c0-10.722 8.764-19.456 19.576-19.456zM489.412 754.302c10.812 0 19.576 8.734 19.576 19.456 0 10.752-8.764 19.456-19.576 19.456s-19.576-8.674-19.576-19.426c0-10.752 8.764-19.486 19.576-19.486zM489.412 520.439c10.812 0 19.576 8.764 19.576 19.456 0 10.782-8.764 19.516-19.576 19.516s-19.576-8.734-19.576-19.516c0-10.692 8.764-19.456 19.576-19.456zM489.412 832.247c10.812 0 19.576 8.704 19.576 19.456s-8.764 19.516-19.576 19.516-19.576-8.764-19.576-19.516c0-10.752 8.764-19.456 19.576-19.456zM670.66 405.359c-37.828 0-71.77 16.535-95.624 42.827h-26.985c27.558-38.822 72.162-64.181 122.609-64.181 83.697 0 151.552 69.451 151.552 155.106 0-85.685 67.855-155.106 151.552-155.106 50.507 0 95.081 25.359 122.639 64.181h-26.985c-23.883-26.293-57.826-42.827-95.654-42.827-72.162 0-130.65 59.934-130.65 133.752v20.299h155.287v38.972h-155.287v176.128c0 73.879 58.488 133.752 130.65 133.752 32.407 0 62.012-12.107 84.811-32.105h29.515c-27.799 32.738-68.638 53.519-114.357 53.519-83.697 0-151.552-69.481-151.552-155.166 0 85.715-67.855 155.166-151.552 155.166-45.719 0-86.558-20.781-114.327-53.519h29.545c22.829 19.998 52.375 32.105 84.781 32.105 72.162 0 130.65-59.874 130.65-133.752v-176.128h-155.256v-38.972h155.256v-20.299c0-73.818-58.458-133.752-130.62-133.752zM1155.012 910.221c10.812 0 19.576 8.674 19.576 19.456 0 10.692-8.764 19.456-19.576 19.456-10.782 0-19.546-8.764-19.546-19.456-0.030-10.782 8.734-19.456 19.546-19.456zM489.412 910.221c10.812 0 19.576 8.674 19.576 19.456 0 10.692-8.764 19.456-19.576 19.456s-19.576-8.734-19.576-19.456c0-10.782 8.764-19.456 19.576-19.456zM489.412 442.464c10.812 0 19.576 8.764 19.576 19.486 0 10.752-8.764 19.486-19.576 19.486s-19.576-8.734-19.576-19.486c0-10.722 8.764-19.486 19.576-19.486zM1155.012 715.3c-10.782 0-19.546-8.734-19.546-19.456 0-10.752 8.764-19.516 19.546-19.516 10.812 0 19.576 8.764 19.576 19.516 0 10.722-8.764 19.456-19.576 19.456zM1155.012 637.325c-10.782 0-19.546-8.704-19.546-19.486 0-10.722 8.764-19.456 19.546-19.456 10.812 0 19.576 8.704 19.576 19.456 0 10.782-8.764 19.486-19.576 19.486zM1155.012 793.244c-10.782 0-19.546-8.704-19.546-19.456 0-10.722 8.764-19.456 19.546-19.456 10.812 0 19.576 8.734 19.576 19.456 0 10.752-8.764 19.456-19.576 19.456zM1155.012 871.219c-10.782 0-19.546-8.764-19.546-19.516 0-10.722 8.764-19.456 19.546-19.456 10.812 0 19.576 8.704 19.576 19.456s-8.764 19.516-19.576 19.516zM1155.012 559.411c-10.782 0-19.546-8.734-19.546-19.516 0-10.692 8.764-19.456 19.546-19.456 10.812 0 19.576 8.764 19.576 19.456 0 10.782-8.764 19.516-19.576 19.516zM1155.012 481.466c-10.782 0-19.546-8.734-19.546-19.486 0-10.722 8.764-19.486 19.546-19.486 10.812 0 19.576 8.764 19.576 19.486 0 10.752-8.764 19.486-19.576 19.486zM1135.435 91.654c0-53.79-43.821-97.4-97.882-97.4h-900.518c-54.061 0-97.882 43.61-97.882 97.4v721.107c0 53.82 43.821 97.461 97.882 97.461h234.918v38.942h-274.071c-54.061 0-97.882-43.61-97.882-97.461v-798.991c0-53.79 43.821-97.37 97.882-97.37h978.824c54.061 0 97.882 43.58 97.882 97.37v272.896h-39.153v-233.954zM489.412 364.55c10.812 0 19.576 8.674 19.576 19.456 0 10.752-8.764 19.456-19.576 19.456s-19.576-8.704-19.576-19.456c0-10.782 8.764-19.456 19.576-19.456zM1155.012 403.492c-10.782 0-19.546-8.704-19.546-19.456 0-10.782 8.764-19.456 19.546-19.456 10.812 0 19.576 8.674 19.576 19.456 0 10.752-8.764 19.456-19.576 19.456z" horiz-adv-x="1205" />
<glyph unicode="&#xe624;" d="M896.025 522.34l127.975 85.516-512.974 341.342-511.026-341.342 128.025-85.142-128.025-85.492 128.025-85.192-128.025-85.516 513.124-341.317 510.876 341.317-127.975 85.167 127.975 85.541-127.975 85.117zM51.2 607.856l460.8 307.225 460.8-307.225-460.8-307.175-460.8 307.175zM972.8 266.515l-460.8-307.2-460.8 307.2 102.575 68.408 359.374-239.067 357.451 238.817 102.2-68.158zM512 130.023l-460.8 307.2 102.575 68.358 359.374-239.067 357.451 238.842 102.225-68.133-460.825-307.2z" />
<glyph unicode="&#xe625;" d="M992.896 723.051c-116.813 0-211.61 92.851-212.992 207.923 0 0-100.122 18.176-255.232 18.176s-255.078-18.176-255.078-18.176c-1.408-115.072-96.154-207.923-212.89-207.923-1.843 0-3.661 0.051-5.504 0.154 8.243-76.339 21.094-197.53 37.043-356.224 28.723-285.542 433.792-441.83 433.792-441.83h5.248c0 0 405.299 156.262 434.022 441.83 16 158.694 28.851 279.859 37.094 356.224-1.843-0.102-3.661-0.154-5.504-0.154zM929.587 371.639c-26.65-266.547-402.458-412.365-402.458-412.365h-4.89c0 0-375.603 145.818-402.253 412.365-14.797 148.122-26.675 261.222-34.33 332.493 1.69-0.026 3.379-0.154 5.094-0.154 108.237 0 196.096 86.656 197.402 194.074 0 0 92.723 16.998 236.544 16.998 143.795 0 236.646-16.998 236.646-16.998 1.306-107.418 89.19-194.074 197.504-194.074 1.69 0 3.405 0.128 5.094 0.154-7.654-71.27-19.533-184.371-34.355-332.493zM718.95 799.262c0 0-72.806 13.338-185.549 13.338v-34.227c98.842-0.947 155.008-16.973 155.008-16.973 14.208-66.125 76.262-136.346 154.701-136.525 0.051 0.563 0.128 1.254 0.205 1.766 0.307-0.794 0.845-1.766 0.102-1.766h-0.307c-5.581-51.021-14.106-130.637-24.653-234.522-19.328-190.387-285.056-294.579-285.056-294.579v-34.125h1.843c0 0 294.758 114.611 315.648 324.019 11.597 116.403 20.941 205.235 26.957 261.171-1.357 0-2.662-0.077-3.994-0.077-84.966 0.026-153.907 68.147-154.906 152.499z" />
<glyph unicode="&#xe626;" d="M1940.675 940.052c-12.678 12.922-33.256 12.922-45.934 0l-919.893-934.278-919.942 934.278c-12.678 12.922-33.304 12.922-45.982 0-12.727-12.873-12.727-33.792 0-46.811l942.909-957.538c12.727-12.873 33.353-12.873 45.982 0l942.86 957.538c12.776 13.019 12.776 33.987 0 46.811z" horiz-adv-x="1950" />
<glyph unicode="&#xe627;" d="M708.659 846.699h-168.73v68.25c0 18.842-15.13 34.125-33.741 34.125h-269.978c-18.611 0-33.741-15.283-33.741-34.125v-68.25h-168.73c-18.637 0-33.741-15.283-33.741-34.15v-853.197c0-18.842 15.104-34.15 33.741-34.15l674.893 0.026c18.662 0 33.741 15.283 33.741 34.125v853.197c0.026 18.867-15.078 34.15-33.715 34.15zM236.211 897.873c0 9.446 7.552 17.075 16.87 17.075h236.211c9.318 0 16.896-7.629 16.896-17.075v-119.424c0-9.421-7.578-17.075-16.896-17.075h-236.211c-9.318 0-16.87 7.654-16.87 17.075v119.424zM185.6-40.649h-134.989c-9.318 0-16.87 7.654-16.87 17.050v119.45h151.859v-136.499zM185.6 129.975h-151.859v153.6h151.859v-153.6zM185.6 317.675h-151.859v136.525h151.859v-136.525zM185.6 488.324h-151.859v153.6h151.859v-153.6zM354.33-40.649h-134.989v136.499h134.989v-136.499zM354.33 129.975h-134.989v153.6h134.989v-153.6zM354.33 317.675h-134.989v136.525h134.989v-136.525zM354.33 488.324h-134.989v153.6h134.989v-153.6zM523.059-40.649h-134.963v136.499h134.963v-136.499zM523.059 129.975h-134.963v153.6h134.963v-153.6zM523.059 317.675h-134.963v136.525h134.963v-136.525zM523.059 488.324h-134.963v153.6h134.963v-153.6zM708.659-23.599c0-9.395-7.552-17.050-16.845-17.050h-135.014v136.499h151.859v-119.45zM708.659 129.975h-151.859v153.6h151.859v-153.6zM708.659 317.675h-151.859v136.525h151.859v-136.525zM708.659 488.324h-151.859v153.6h151.859v-153.6zM708.659 676.023h-674.918v119.501c0 9.395 7.552 17.024 16.87 17.024h151.859v-51.174c0-18.867 15.104-34.125 33.741-34.125h269.978c18.611 0 33.715 15.258 33.715 34.125v51.174h151.885c9.293 0 16.845-7.629 16.845-17.024v-119.501z" horiz-adv-x="742" />
<glyph unicode="&#xe628;" d="M962.219 914.099c-41.643 41.223-103.45 46.841-138.082 12.577l-34.238-33.871 0.158-0.158-592.581-586.017-74.411-160.873c-12.629-43.454 22.423-80.213 63.619-62.91 1.024 0.394 162.553 73.649 162.553 73.649l-0.84 0.814 626.557 620.15c34.606 34.317 28.908 95.468-12.734 136.638zM208.24 125.462c-39.148-19.587-68.424-7.194-43.087 42.588l53.852 117.287 107.73-106.601c-0.026 0-117.629-52.854-118.495-53.274zM348.265 200.056l-107.651 106.549 8.848 8.665 543.061 537.232c0.709 0.84 1.392 1.654 2.153 2.389l16.778 16.62 107.704-106.627-570.893-564.828zM940.662 786.231l-107.704 106.601c31.455 31.14 78.165 29.197 107.704 0 29.565-29.276 31.481-75.54 0-106.601zM842.936 44.618c0-47.13-38.518-85.333-85.99-85.333h-636.534c-47.498 0-85.99 38.203-85.99 85.333v631.493c0 47.104 38.492 85.333 85.99 85.333h378.46v34.055h-412.856c-47.498 0-86.016-38.151-86.016-85.307v-699.707c0-47.13 38.518-85.307 86.016-85.307h705.3c47.524 0 86.016 38.177 86.016 85.307v477.893h-34.422v-443.76z" horiz-adv-x="998" />
<glyph unicode="&#xe629;" d="M1014.605 636.804h-174.797l-262.554 260.531c-0.051 28.621-23.501 51.891-52.454 51.891-28.979 0-52.48-23.322-52.48-52.045 0-0.333 0.077-0.589 0.102-0.896l-261.53-259.482h-175.898c-19.328 0-34.995-15.565-34.995-34.688v-642.202c0-19.174 15.667-34.662 34.995-34.662h979.61c19.354 0 34.995 15.488 34.995 34.662v642.202c0 19.123-15.642 34.688-34.995 34.688zM524.8 914.513c9.651 0 17.51-7.782 17.51-17.357 0-9.626-7.834-17.357-17.51-17.357s-17.51 7.731-17.51 17.357c0 9.6 7.859 17.357 17.51 17.357zM486.784 861.419c9.574-10.010 23.014-16.358 38.016-16.358 15.258 0 28.851 6.579 38.451 16.87l226.893-225.152h-529.766l226.406 224.64zM1014.605-7.138c0-18.176-14.848-32.947-33.152-32.947h-913.28c-17.613 0-33.306-0.102-33.178 17.357l367.846 387.686 246.426-244.48-74.112-73.498 24.755-24.525 222.746 221.030 191.949-190.413v-60.211zM1014.605 102.123l-191.949 190.413-148.685-147.533-271.155 269.056-24.73-24.576-343.091-356.89v536.602c0 18.176 14.848 32.922 33.178 32.922h913.28c18.304 0 33.152-14.746 33.152-32.922v-467.072zM664.755 515.307c-48.307 0-87.475-38.861-87.475-86.784 0-47.898 39.168-86.784 87.475-86.784s87.45 38.886 87.45 86.784c0 47.923-39.142 86.784-87.45 86.784zM664.755 376.503c-29.005 0-52.506 23.296-52.506 52.019 0 28.774 23.501 52.096 52.506 52.096 28.979 0 52.48-23.322 52.48-52.096 0-28.723-23.501-52.019-52.48-52.019z" horiz-adv-x="1050" />
<glyph unicode="&#xe62a;" d="M996.653 170.17l-117.971 119.145c-36.653 36.984-100.984 27.859-137.427-8.975l-73.156-73.788c-33.762-34.726-72.824 3.132-158.298 72.102-1.265 0.422-177.303 173.809-178.417 176.309-39.816 48.58-77.161 96.557-41.864 132.939l21.986 22.197c0 0 41.532 41.924 58.699 59.241v0c36.442 36.834 36.292 96.678-0.361 133.662l-117.971 119.055c-36.653 36.984-95.895 37.165-132.367 0.361l-0.030 0.030c-15.24-15.209-51.381-51.381-80.625-81.498-48.038-59.723-115.712-265.216 236.424-621.809 371.049-375.838 599.070-306.477 658.281-246.694l19.456 19.697c8.222 8.403 29.485 29.756 44.032 44.454 36.412 36.744 36.262 96.617-0.392 133.572zM127.006 870.978c52.917 53.399 78.968 38.37 117.007 0l87.763-88.606c34.394-34.696 29.907-60.898-12.499-103.695-6.957-7.078-11.535-11.625-15.541-15.691l-191.398 193.235c4.728 4.789 9.608 9.668 14.667 14.758zM625.544 9.041c-142.938 62.404-308.435 226.936-308.435 226.936-220.732 212.902-292.232 408.004-271.059 507.994 6.897 35.268 20.48 59.512 38.28 81.468l190.103-191.91c-5.722-5.783-12.408-12.589-21.474-21.896-9.758-9.547-29.756-34.997-25.299-60.627 14.216-86.739 167.032-226.696 213.173-272.565 61.5-60.205 159.142-140.017 202.12-133.873 19.426-2.47 44.875 20.209 69.963 46.2l185.374-187.121c-103.213-66.741-200.824-22.408-272.745 5.391zM947.742 44.188c-5.451-5.481-10.812-10.21-16.203-14.968l-190.163 191.97c1.114 1.175 2.259 2.409 3.343 3.584 44.213 44.634 78.246 61.681 128.181 11.324l58.519-59.121c52.224-52.706 67.554-81.077 16.324-132.789z" />
<glyph unicode="&#xe62b;" d="M170.658 437.198c0 9.441-7.643 17.033-17.083 17.033h-136.517c-9.416 0-17.058-7.593-17.058-17.033s7.643-17.083 17.058-17.083h136.542c9.416 0 17.058 7.643 17.058 17.083zM255.026 670.021c6.668-6.718 17.483-6.718 24.126 0 6.668 6.644 6.668 17.458 0 24.076l-96.506 96.581c-6.668 6.693-17.483 6.693-24.151 0-6.668-6.668-6.668-17.483 0-24.151l96.531-96.506zM246.509 195.834l-96.531-96.531c-6.668-6.668-6.668-17.483 0-24.151 6.668-6.718 17.458-6.718 24.126 0l96.531 96.556c6.668 6.644 6.668 17.433 0 24.126-6.668 6.644-17.458 6.644-24.126 0zM777.491 678.537l96.556 96.531c6.668 6.693 6.668 17.458 0 24.176-6.693 6.644-17.483 6.644-24.151 0l-96.531-96.531c-6.693-6.718-6.693-17.483 0-24.176 6.668-6.693 17.458-6.693 24.126 0zM512 778.515c9.416 0 17.083 7.643 17.083 17.083v136.517c0 9.416-7.643 17.083-17.083 17.083s-17.083-7.668-17.083-17.083v-136.542c0-9.416 7.668-17.058 17.083-17.058zM512 95.831c-9.416 0-17.083-7.618-17.083-17.083v-136.517c0-9.391 7.643-17.083 17.083-17.083s17.083 7.692 17.083 17.083v136.517c0 9.466-7.668 17.083-17.083 17.083zM786.032 187.267c-6.668 6.718-17.458 6.718-24.126 0-6.693-6.668-6.693-17.458 0-24.101l96.531-96.556c6.668-6.644 17.458-6.644 24.151 0 6.644 6.644 6.644 17.483 0 24.126l-96.556 96.531zM1006.917 454.231h-136.517c-9.416 0-17.083-7.593-17.083-17.033s7.668-17.083 17.083-17.083h136.542c9.416 0 17.083 7.643 17.083 17.083s-7.692 17.033-17.108 17.033zM512 727.315c-160.244 0-290.142-129.923-290.142-290.117 0-160.244 129.898-290.117 290.142-290.117s290.142 129.873 290.142 290.117c0 160.194-129.898 290.117-290.142 290.117zM512 181.448c-141.262 0-255.775 114.488-255.775 255.75 0 141.237 114.513 255.75 255.775 255.75s255.75-114.513 255.75-255.75c0-141.262-114.488-255.75-255.75-255.75z" />
</font>
</defs>
</svg>
